<?xml version="1.0" encoding="UTF-8"?> <svg xmlns="http://www.w3.org/2000/svg" width="26" height="26" viewBox="0 0 26 26"><defs><style> .cls-1 { fill: #2eb872; fill-rule: evenodd; } </style></defs><path id="_copy" data-name=" copy" class="cls-1" d="M1387.35,207.7a2.331,2.331,0,0,1,.79.254,2.6,2.6,0,0,1,.66.508,2.316,2.316,0,0,1,.43.685,2.267,2.267,0,0,1,.15.838v6.094a2.232,2.232,0,0,1-.18.914,2.051,2.051,0,0,1-.48.711,2.615,2.615,0,0,1-.73.508,2.1,2.1,0,0,1-.89.2h-2.29v-1.574h-1.52v-7.618h1.52V207.7h0.92a11.34,11.34,0,0,0-3.61-5.535,9.363,9.363,0,0,0-2.69-1.574,8.573,8.573,0,0,0-6.09,0,9.414,9.414,0,0,0-2.7,1.574,11.417,11.417,0,0,0-3.6,5.535h0.91v1.523h1.53v7.618h-1.53v1.574h-1.62a4.312,4.312,0,0,0,.48,1.168,3.846,3.846,0,0,0,.84.99,3.629,3.629,0,0,0,2.44.889h4.16a2.175,2.175,0,0,1,.3-0.635,2.218,2.218,0,0,1,.49-0.482,1.9,1.9,0,0,1,.63-0.3,2.56,2.56,0,0,1,.71-0.1h4.57a2.288,2.288,0,0,1,.92.178,2.4,2.4,0,0,1,.71.482,2.942,2.942,0,0,1,.51.711,2.093,2.093,0,0,1,.2.914,2.141,2.141,0,0,1-.2.889,2.767,2.767,0,0,1-.51.736,2.382,2.382,0,0,1-.71.483,2.288,2.288,0,0,1-.92.178h-4.57a2.6,2.6,0,0,1-.71-0.1,1.668,1.668,0,0,1-.63-0.33,2.8,2.8,0,0,1-.49-0.508,2.361,2.361,0,0,1-.3-0.584h-4.16a4.923,4.923,0,0,1-1.93-.381,5.692,5.692,0,0,1-1.63-1.015,5.508,5.508,0,0,1-1.17-1.5,5.187,5.187,0,0,1-.56-1.879,1.916,1.916,0,0,1-.58-0.33,2.127,2.127,0,0,1-.46-0.508,2.512,2.512,0,0,1-.28-0.61,2.589,2.589,0,0,1-.1-0.685v-6.094a2.267,2.267,0,0,1,.15-0.838,2.347,2.347,0,0,1,.44-0.685,2.288,2.288,0,0,1,.66-0.508,2.213,2.213,0,0,1,.78-0.254,14.229,14.229,0,0,1,1.63-3.732,12,12,0,0,1,2.51-2.9,11.761,11.761,0,0,1,3.2-1.879,9.961,9.961,0,0,1,7.26,0,11.614,11.614,0,0,1,3.2,1.879,12.036,12.036,0,0,1,2.52,2.9,13.884,13.884,0,0,1,1.62,3.732h0Zm-10.97,13.762a0.953,0.953,0,0,0-.3.05,0.7,0.7,0,0,0-.26.153,0.68,0.68,0,0,0-.15.254,1.074,1.074,0,0,0-.05.3,0.83,0.83,0,0,0,.05.28,1.1,1.1,0,0,0,.15.254,0.57,0.57,0,0,0,.26.177,0.927,0.927,0,0,0,.3.051h4.57a0.987,0.987,0,0,0,.31-0.051,0.541,0.541,0,0,0,.25-0.177,0.834,0.834,0,0,0,.15-0.254,0.641,0.641,0,0,0,.05-0.28,0.809,0.809,0,0,0-.05-0.3,0.57,0.57,0,0,0-.15-0.254,0.662,0.662,0,0,0-.25-0.153,1.015,1.015,0,0,0-.31-0.05h-4.57Zm-9.95-4.621v-7.618h-0.76a0.755,0.755,0,0,0-.28.051,1.039,1.039,0,0,0-.26.153,0.528,0.528,0,0,0-.17.253,0.817,0.817,0,0,0-.05.305v6.094a0.817,0.817,0,0,0,.05.305,0.524,0.524,0,0,0,.17.253,1.009,1.009,0,0,0,.26.153,0.735,0.735,0,0,0,.28.051h0.76Zm21.43-.762v-6.094a1.087,1.087,0,0,0-.05-0.305,0.631,0.631,0,0,0-.18-0.253,0.991,0.991,0,0,0-.25-0.153,0.794,0.794,0,0,0-.28-0.051h-0.76v7.618h0.76a0.773,0.773,0,0,0,.28-0.051,0.963,0.963,0,0,0,.25-0.153,0.624,0.624,0,0,0,.18-0.253,1.087,1.087,0,0,0,.05-0.305h0Z" transform="translate(-1363.38 -198.5)"></path></svg> 