<?xml version="1.0" encoding="UTF-8"?> <svg xmlns="http://www.w3.org/2000/svg" id="logo-green" width="185" height="55" viewBox="0 0 185 55"><defs><style> .cls-1, .cls-2 { fill: #ffffff; } .cls-2 { opacity: 0.5; } .cls-3 { fill: #2eb872; } </style></defs><path id="WildDale" class="cls-1" d="M81.243,30.825l2.869-14.8h0.126l2.838,14.8a0.689,0.689,0,0,0,.757.663h4.446A0.674,0.674,0,0,0,93,30.825L96.41,11.887a0.557,0.557,0,0,0-.662-0.694H92.468a0.66,0.66,0,0,0-.757.694l-1.8,15.529H89.662l-3.09-15.687a0.616,0.616,0,0,0-.694-0.537H82.347a0.607,0.607,0,0,0-.662.568L78.657,27.416H78.437L76.608,11.855a0.649,0.649,0,0,0-.757-0.663H72.572a0.543,0.543,0,0,0-.662.663l3.374,18.97a0.706,0.706,0,0,0,.788.663h4.414a0.713,0.713,0,0,0,.757-0.663h0ZM99.405,13.307h2.744a0.557,0.557,0,0,0,.63-0.631V9.9a0.544,0.544,0,0,0-.63-0.6H99.405a0.558,0.558,0,0,0-.631.631v2.746a0.557,0.557,0,0,0,.631.631h0Zm0.032,18.181h2.712a0.525,0.525,0,0,0,.63-0.663V16.053a0.586,0.586,0,0,0-.662-0.663H99.405a0.572,0.572,0,0,0-.631.663V30.825a0.586,0.586,0,0,0,.662.663h0Zm11.131-.663V9.961a0.586,0.586,0,0,0-.663-0.663h-2.68a0.586,0.586,0,0,0-.662.663V30.825a0.586,0.586,0,0,0,.662.663h2.68a0.586,0.586,0,0,0,.663-0.663h0Zm11.382,0.237a2.39,2.39,0,0,0,1.23-1.278h0.126v1.042a0.586,0.586,0,0,0,.663.663h2.68a0.586,0.586,0,0,0,.662-0.663V9.961a0.586,0.586,0,0,0-.662-0.663h-2.68a0.586,0.586,0,0,0-.663.663v7.133H123.18a2.391,2.391,0,0,0-1.23-1.278,4.226,4.226,0,0,0-1.86-.426H118.8a4.8,4.8,0,0,0-3.673,1.326,5.37,5.37,0,0,0-1.246,3.819v5.808a5.369,5.369,0,0,0,1.246,3.819,4.8,4.8,0,0,0,3.673,1.326h1.293A4.227,4.227,0,0,0,121.95,31.062Zm-0.819-3.046h-1.419a1.922,1.922,0,0,1-1.419-.426,2.035,2.035,0,0,1-.41-1.436V20.724a2.035,2.035,0,0,1,.41-1.436,1.922,1.922,0,0,1,1.419-.426h1.419q2.175,0,2.175,2.4v4.356q0,2.4-2.175,2.4h0Zm12.707,1.168V13.5a0.266,0.266,0,0,1,.315-0.284h5.3q2.649,0,2.649,2.746V26.722q0,2.746-2.649,2.746h-5.3a0.266,0.266,0,0,1-.315-0.284h0Zm-1.861,2.3h7.757a4.31,4.31,0,0,0,4.667-4.672V15.864a4.632,4.632,0,0,0-1.245-3.425,4.623,4.623,0,0,0-3.422-1.247h-7.757a0.39,0.39,0,0,0-.441.442V31.046a0.39,0.39,0,0,0,.441.442h0Zm25.983-1.673h0.126v1.231a0.39,0.39,0,0,0,.441.442h1.419a0.39,0.39,0,0,0,.442-0.442V15.832a0.391,0.391,0,0,0-.442-0.442H153.1a4.652,4.652,0,0,0-3.421,1.231,4.617,4.617,0,0,0-1.246,3.44v6.755a4.291,4.291,0,0,0,4.667,4.672h1.64a3.191,3.191,0,0,0,3.216-1.673h0Zm-0.631-1.1a2.941,2.941,0,0,1-2.175.758h-1.8q-2.618,0-2.617-2.746V20.156q0-2.746,2.617-2.746h4.415a0.266,0.266,0,0,1,.315.284v8.869A2.9,2.9,0,0,1,157.329,28.71Zm9.87,2.336V9.74a0.391,0.391,0,0,0-.442-0.442h-1.419a0.39,0.39,0,0,0-.441.442V31.046a0.39,0.39,0,0,0,.441.442h1.419a0.391,0.391,0,0,0,.442-0.442h0Zm15.986,0.032V29.941a0.39,0.39,0,0,0-.441-0.442h-6.433q-2.649,0-2.649-2.746V24.828a0.266,0.266,0,0,1,.316-0.284H182.9a0.405,0.405,0,0,0,.442-0.474V20.062a4.653,4.653,0,0,0-1.23-3.44,4.6,4.6,0,0,0-3.405-1.231h-2.649a4.652,4.652,0,0,0-3.421,1.231,4.617,4.617,0,0,0-1.246,3.44v6.755a4.291,4.291,0,0,0,4.667,4.672h6.685a0.377,0.377,0,0,0,.441-0.41h0Zm-9.523-8.522v-2.43q0-2.714,2.649-2.715h2.144q2.649,0,2.649,2.715v2.43a0.279,0.279,0,0,1-.315.316h-6.811a0.279,0.279,0,0,1-.316-0.316h0Z" transform="translate(-0.906 -0.563)"></path><path id="Awesome_Safari" data-name="Awesome Safari" class="cls-2" d="M73.178,51.032l1.163-2.722h5.543l1.178,2.722h1.284l-4.7-10.66H76.592l-4.7,10.66h1.284Zm3.957-9.208,2.311,5.443H74.794l2.311-5.443h0.03ZM86.8,51.032l2.085-5.7,2.069,5.7H92.12l2.749-7.348H93.645l-2.1,5.927-2.115-5.927H88.389L86.244,49.6l-2.069-5.912H82.89l2.734,7.348H86.8Zm14.651-.129a3.457,3.457,0,0,0,1.269-.733l-0.423-.862a3.441,3.441,0,0,1-1.148.673,3.938,3.938,0,0,1-1.269.2,2.505,2.505,0,0,1-1.843-.658,2.771,2.771,0,0,1-.725-1.913h5.528V47.147A3.853,3.853,0,0,0,102,44.508a2.957,2.957,0,0,0-2.341-.96,3.5,3.5,0,0,0-1.835.476,3.321,3.321,0,0,0-1.246,1.346,4.273,4.273,0,0,0-.453,2,3.766,3.766,0,0,0,1.012,2.774,3.7,3.7,0,0,0,2.749,1.021A4.8,4.8,0,0,0,101.454,50.9Zm-0.249-5.829a2.756,2.756,0,0,1,.582,1.739H97.331a2.844,2.844,0,0,1,.71-1.709,2.138,2.138,0,0,1,1.646-.65A1.9,1.9,0,0,1,101.205,45.075Zm8.315,5.511a1.865,1.865,0,0,0,.8-1.6,1.618,1.618,0,0,0-.5-1.247,3.109,3.109,0,0,0-1.466-.673l-1.374-.287a1.144,1.144,0,0,1-1.118-1.089,1.049,1.049,0,0,1,.438-0.877,2.1,2.1,0,0,1,1.284-.333,3.263,3.263,0,0,1,1.156.219,3.068,3.068,0,0,1,1.019.627l0.408-.862a2.91,2.91,0,0,0-1.14-.688,4.448,4.448,0,0,0-1.443-.234,3.336,3.336,0,0,0-2.077.6,1.916,1.916,0,0,0-.793,1.6q0,1.527,1.873,1.935l1.375,0.3a2.063,2.063,0,0,1,.906.386,0.847,0.847,0,0,1,.287.673,1.009,1.009,0,0,1-.438.862,2.2,2.2,0,0,1-1.3.318,4.483,4.483,0,0,1-1.337-.2,3.6,3.6,0,0,1-1.2-.643l-0.393.862a3.47,3.47,0,0,0,1.269.68,5.426,5.426,0,0,0,1.632.242A3.54,3.54,0,0,0,109.52,50.586Zm7.862,0.113a3.139,3.139,0,0,0,1.224-1.323,4.953,4.953,0,0,0,0-4.037,3.142,3.142,0,0,0-1.224-1.323,3.9,3.9,0,0,0-3.708,0,3.156,3.156,0,0,0-1.216,1.323,4.953,4.953,0,0,0,0,4.037,3.152,3.152,0,0,0,1.216,1.323A3.9,3.9,0,0,0,117.382,50.7Zm-3.5-1.247a3.9,3.9,0,0,1,0-4.2,2.238,2.238,0,0,1,3.3,0,3.859,3.859,0,0,1,0,4.2A2.223,2.223,0,0,1,113.878,49.452Zm8.557,1.58V46.874a2.589,2.589,0,0,1,.521-1.693,1.748,1.748,0,0,1,1.428-.635,1.365,1.365,0,0,1,1.17.476,2.5,2.5,0,0,1,.355,1.489v4.521h1.224V46.874a2.564,2.564,0,0,1,.528-1.693,1.754,1.754,0,0,1,1.42-.635,1.366,1.366,0,0,1,1.171.476,2.51,2.51,0,0,1,.355,1.489v4.521h1.223V46.451q0-2.9-2.447-2.9a2.789,2.789,0,0,0-1.5.4,2.553,2.553,0,0,0-.982,1.1,2.076,2.076,0,0,0-2.205-1.5,2.612,2.612,0,0,0-1.375.355,2.417,2.417,0,0,0-.921,1.021v-1.24h-1.193v7.348h1.223Zm16.857-.129a3.457,3.457,0,0,0,1.269-.733l-0.423-.862a3.451,3.451,0,0,1-1.148.673,3.939,3.939,0,0,1-1.269.2,2.507,2.507,0,0,1-1.843-.658,2.772,2.772,0,0,1-.725-1.913h5.529V47.147a3.853,3.853,0,0,0-.846-2.639,2.96,2.96,0,0,0-2.342-.96,3.5,3.5,0,0,0-1.835.476,3.324,3.324,0,0,0-1.246,1.346,4.274,4.274,0,0,0-.453,2,3.766,3.766,0,0,0,1.012,2.774,3.7,3.7,0,0,0,2.749,1.021A4.808,4.808,0,0,0,139.292,50.9Zm-0.249-5.829a2.755,2.755,0,0,1,.581,1.739h-4.456a2.847,2.847,0,0,1,.71-1.709,2.14,2.14,0,0,1,1.647-.65A1.9,1.9,0,0,1,139.043,45.075Zm13.594,5.715A3.087,3.087,0,0,0,154,49.732a2.67,2.67,0,0,0,.476-1.572,2.205,2.205,0,0,0-.732-1.746,4.952,4.952,0,0,0-2.258-.96l-1.571-.333a2.914,2.914,0,0,1-1.458-.62,1.51,1.51,0,0,1-.446-1.149,1.759,1.759,0,0,1,.71-1.459,3.023,3.023,0,0,1,1.9-.552,4.84,4.84,0,0,1,1.691.28,4.4,4.4,0,0,1,1.435.9l0.438-.968a4.234,4.234,0,0,0-1.556-.975,5.706,5.706,0,0,0-1.993-.34,4.9,4.9,0,0,0-2.024.393,3.209,3.209,0,0,0-1.367,1.1,2.849,2.849,0,0,0-.491,1.663,2.455,2.455,0,0,0,.7,1.837,4.238,4.238,0,0,0,2.122.99l1.571,0.317a3.731,3.731,0,0,1,1.594.62,1.3,1.3,0,0,1,.476,1.058,1.607,1.607,0,0,1-.657,1.338,3.293,3.293,0,0,1-2.017.506,6.107,6.107,0,0,1-1.964-.287,5.638,5.638,0,0,1-1.616-.877l-0.438,1a5.132,5.132,0,0,0,1.752.945,7.391,7.391,0,0,0,2.266.325A5.294,5.294,0,0,0,152.637,50.79Zm7.6,0a2.28,2.28,0,0,0,.883-1.028v1.27h1.148V46.406a2.973,2.973,0,0,0-.687-2.162,2.849,2.849,0,0,0-2.107-.7,5.6,5.6,0,0,0-1.579.242,4.662,4.662,0,0,0-1.4.65l0.423,0.892a5.039,5.039,0,0,1,1.269-.612,4.379,4.379,0,0,1,1.284-.189,1.608,1.608,0,0,1,1.231.416,1.956,1.956,0,0,1,.385,1.353v0.469H160.6a13.192,13.192,0,0,0-2.621.2,2.476,2.476,0,0,0-1.374.673,1.842,1.842,0,0,0-.416,1.27,2,2,0,0,0,.348,1.149,2.386,2.386,0,0,0,.944.809,3.007,3.007,0,0,0,1.351.295A2.558,2.558,0,0,0,160.235,50.79Zm-2.372-.937a1.309,1.309,0,0,1-.43-1.013,1.033,1.033,0,0,1,.279-0.764,1.793,1.793,0,0,1,.982-0.393,12.724,12.724,0,0,1,1.926-.113h0.468v0.454a2.27,2.27,0,0,1-.574,1.6,1.915,1.915,0,0,1-1.48.627A1.669,1.669,0,0,1,157.863,49.853Zm8.587,1.179v-6.4h2.115V43.684H166.45V43.276a2.1,2.1,0,0,1,.416-1.406,1.907,1.907,0,0,1,1.352-.559l0.7-.045-0.106-.937-0.589.03a3.308,3.308,0,0,0-2.259.847,3.074,3.074,0,0,0-.732,2.223v0.257h-1.45v0.953h1.45v6.4h1.223Zm7.349-.242a2.282,2.282,0,0,0,.884-1.028v1.27h1.148V46.406a2.973,2.973,0,0,0-.688-2.162,2.847,2.847,0,0,0-2.107-.7,5.6,5.6,0,0,0-1.578.242,4.651,4.651,0,0,0-1.4.65l0.422,0.892a5.039,5.039,0,0,1,1.269-.612,4.379,4.379,0,0,1,1.284-.189,1.608,1.608,0,0,1,1.231.416,1.956,1.956,0,0,1,.385,1.353v0.469h-0.483a13.2,13.2,0,0,0-2.621.2,2.483,2.483,0,0,0-1.374.673,1.847,1.847,0,0,0-.416,1.27,2,2,0,0,0,.348,1.149,2.386,2.386,0,0,0,.944.809,3.012,3.012,0,0,0,1.352.295A2.557,2.557,0,0,0,173.8,50.79Zm-2.371-.937A1.31,1.31,0,0,1,171,48.84a1.033,1.033,0,0,1,.279-0.764,1.8,1.8,0,0,1,.982-0.393,12.742,12.742,0,0,1,1.926-.113h0.468v0.454a2.27,2.27,0,0,1-.574,1.6,1.913,1.913,0,0,1-1.48.627A1.668,1.668,0,0,1,171.428,49.853Zm8.209,1.179V46.844a2.144,2.144,0,0,1,.544-1.55,2.4,2.4,0,0,1,1.586-.658l0.77-.091-0.09-1.058-0.438.045A2.6,2.6,0,0,0,179.592,45V43.684H178.4v7.348h1.239Zm5.83-9.178V40.479h-1.51v1.376h1.51Zm-0.136,9.178V43.684h-1.223v7.348h1.223Z" transform="translate(-0.906 -0.563)"></path><path class="cls-3" d="M55.706,14.882h-7.1L49.1,12.433c0.073-.017.145-0.037,0.217-0.061l7.146-2.387a2.387,2.387,0,0,0-1.507-4.53l-4.783,1.6L50.9,3.413a2.382,2.382,0,1,0-4.671-.937L43.983,13.706l-1.594,1.6-4.554,2.282,1.126-4.514a2.382,2.382,0,1,0-4.621-1.158l-2.382,9.55c0,0.009,0,.019-0.006.028s-0.006.03-.01,0.045q-0.018.085-.031,0.171c0,0.012,0,.024-0.006.037-0.008.063-.013,0.126-0.016,0.189,0,0.021,0,.043,0,0.065s0,0.03,0,.044v4.775a2.386,2.386,0,0,0,.087.631,13.014,13.014,0,0,1-4.937,0,2.391,2.391,0,0,0,.087-0.631V22.044c0-.015,0-0.03,0-0.044s0-.043,0-0.065c0-.064-0.008-0.127-0.016-0.189,0-.013,0-0.025-0.006-0.037q-0.012-.086-0.031-0.171c0-.015-0.006-0.03-0.01-0.045s0-.019-0.006-0.028l-2.382-9.55a2.382,2.382,0,1,0-4.621,1.158l1.126,4.514L16.62,15.3l-1.594-1.6L12.785,2.476a2.382,2.382,0,1,0-4.671.936L8.84,7.052l-4.783-1.6a2.387,2.387,0,0,0-1.506,4.53L9.7,12.372c0.072,0.024.145,0.044,0.217,0.061L10.4,14.88H3.3a2.387,2.387,0,0,0,0,4.775l11.342,0,7.712,3.865v3.3A7.318,7.318,0,0,0,18.2,28.072a6.791,6.791,0,0,0-1.92,2.108,11.652,11.652,0,0,0-5.72-2.816,19.777,19.777,0,0,0-5.07-.206A2.388,2.388,0,0,0,3.765,30.95a17.621,17.621,0,0,1,1.181,1.907,12.434,12.434,0,0,1,.782,1.718,10.529,10.529,0,0,0,6.24,6.551,18.217,18.217,0,0,0,5.913.72c0.039,0.05.077,0.1,0.117,0.149,1.511,1.864,2.447,3.619,2.5,4.779a8.259,8.259,0,0,0,.69,4.205c1.287,2.816,4.1,4.491,8.311,4.491s7.024-1.675,8.311-4.491a8.182,8.182,0,0,0,.7-4.121c0.05-1.245.987-3,2.5-4.865,0.04-.049.077-0.1,0.116-0.148a18.2,18.2,0,0,0,5.911-.719,10.53,10.53,0,0,0,6.243-6.553,12.456,12.456,0,0,1,.782-1.718,17.639,17.639,0,0,1,1.181-1.907,2.388,2.388,0,0,0-1.727-3.791,19.763,19.763,0,0,0-5.066.205,11.653,11.653,0,0,0-5.724,2.817,6.833,6.833,0,0,0-1.569-1.841,7.349,7.349,0,0,0-4.507-1.518v-3.3l7.712-3.865,11.342,0A2.387,2.387,0,0,0,55.706,14.882ZM13.573,36.63a5.8,5.8,0,0,1-3.356-3.651q-0.156-.44-0.348-0.886a7.27,7.27,0,0,1,5.005,3.987l0.309,0.629,0.064,0.253A8.276,8.276,0,0,1,13.573,36.63Zm30.561-.549a7.272,7.272,0,0,1,5.006-3.988q-0.191.445-.348,0.885a5.8,5.8,0,0,1-3.358,3.653,8.246,8.246,0,0,1-1.673.331l0.064-.253Zm-5.1-1.582v0.177a6.884,6.884,0,0,1-1.717,4.307c-2.2,2.718-3.575,5.339-3.575,7.9l0.028,0.363a3.606,3.606,0,0,1-.282,1.74c-0.483,1.057-1.571,1.7-3.981,1.7s-3.5-.648-3.981-1.7a3.572,3.572,0,0,1-.282-1.725c0-.029.028-0.378,0.028-0.378,0-2.565-1.374-5.187-3.575-7.9a6.884,6.884,0,0,1-1.718-4.308V34.5a2.822,2.822,0,0,1,1-2.547,2.952,2.952,0,0,1,1.677-.353,11.911,11.911,0,0,1,2.471.31,17.563,17.563,0,0,0,8.746,0,11.948,11.948,0,0,1,2.462-.312,2.922,2.922,0,0,1,1.8.434A2.93,2.93,0,0,1,39.032,34.5Z" transform="translate(-0.906 -0.563)"></path></svg> 